<?xml version="1.0" encoding="utf-8"?>
<!-- Generator: Adobe Illustrator 16.0.4, SVG Export Plug-In . SVG Version: 6.00 Build 0)  -->
<!DOCTYPE svg PUBLIC "-//W3C//DTD SVG 1.1//EN" "http://www.w3.org/Graphics/SVG/1.1/DTD/svg11.dtd">
<svg version="1.1" id="Laag_1" xmlns="http://www.w3.org/2000/svg" xmlns:xlink="http://www.w3.org/1999/xlink" x="0px" y="0px"
	 width="153px" height="84px" viewBox="0 0 153 84" enable-background="new 0 0 153 84" xml:space="preserve">
<rect fill="#E40B18" width="153" height="84"/>
<title>amsterdameconomicboard</title>
<desc>Created with Sketch.</desc>
<g id="Page-1">
	<path id="amsterdameconomicboard" fill="#FFFFFF" d="M21.711,18.266c0-0.892-0.269-1.551-0.807-1.98
		c-0.538-0.429-1.252-0.644-2.144-0.644c-0.672,0-1.308,0.131-1.904,0.391c-0.597,0.261-1.097,0.592-1.5,0.996l-1.261-1.513
		c0.588-0.555,1.307-0.992,2.156-1.312c0.85-0.32,1.761-0.479,2.737-0.479c0.858,0,1.602,0.122,2.232,0.366
		c0.631,0.244,1.148,0.576,1.552,0.996c0.404,0.421,0.706,0.917,0.908,1.489c0.202,0.571,0.302,1.186,0.302,1.841v5.221
		c0,0.404,0.013,0.829,0.038,1.273c0.026,0.446,0.072,0.812,0.139,1.098h-2.144c-0.134-0.572-0.202-1.144-0.202-1.715h-0.076
		c-0.438,0.639-0.988,1.135-1.652,1.488c-0.665,0.353-1.451,0.529-2.359,0.529c-0.471,0-0.963-0.062-1.476-0.189
		c-0.513-0.126-0.979-0.332-1.399-0.618c-0.421-0.286-0.77-0.665-1.047-1.136c-0.277-0.47-0.417-1.051-0.417-1.74
		c0-0.908,0.244-1.626,0.731-2.156c0.488-0.529,1.126-0.933,1.917-1.21c0.791-0.278,1.681-0.458,2.674-0.542
		c0.992-0.084,1.993-0.126,3.001-0.126V18.266z M21.131,20.309c-0.588,0-1.198,0.025-1.829,0.076s-1.202,0.152-1.715,0.303
		c-0.513,0.151-0.938,0.378-1.274,0.681c-0.337,0.302-0.505,0.706-0.505,1.21c0,0.353,0.072,0.647,0.214,0.883
		c0.143,0.235,0.333,0.429,0.568,0.581c0.236,0.151,0.496,0.256,0.782,0.315c0.286,0.059,0.58,0.088,0.882,0.088
		c1.11,0,1.963-0.332,2.561-0.996c0.597-0.665,0.895-1.501,0.895-2.51v-0.631H21.131z M30.262,16.021
		c0.303-0.64,0.786-1.182,1.45-1.627c0.665-0.445,1.451-0.668,2.358-0.668c0.808,0,1.535,0.185,2.182,0.555
		c0.648,0.37,1.156,0.983,1.526,1.841c0.404-0.774,0.967-1.366,1.69-1.778c0.723-0.412,1.514-0.618,2.371-0.618
		c0.773,0,1.438,0.13,1.993,0.391s1.017,0.61,1.388,1.047c0.37,0.437,0.643,0.95,0.819,1.539c0.177,0.588,0.265,1.219,0.265,1.892
		v7.416h-2.371v-6.634c0-0.488-0.042-0.95-0.126-1.387c-0.084-0.438-0.228-0.824-0.429-1.161c-0.201-0.336-0.471-0.605-0.807-0.807
		c-0.336-0.202-0.765-0.303-1.286-0.303c-0.538,0-1,0.114-1.387,0.341s-0.702,0.521-0.946,0.883c-0.244,0.361-0.42,0.769-0.53,1.223
		c-0.11,0.454-0.164,0.917-0.164,1.387v6.458h-2.371v-7.113c0-0.471-0.043-0.899-0.126-1.287c-0.084-0.386-0.227-0.718-0.429-0.996
		c-0.201-0.277-0.462-0.496-0.782-0.656c-0.319-0.16-0.714-0.24-1.185-0.24c-0.875,0-1.602,0.357-2.182,1.072
		c-0.58,0.714-0.871,1.669-0.871,2.863v6.356h-2.371v-9.384c0-0.319-0.008-0.731-0.025-1.235c-0.017-0.505-0.042-0.95-0.076-1.337
		h2.245c0.034,0.303,0.059,0.643,0.076,1.021s0.025,0.693,0.025,0.946H30.262z M56.772,17.08c-0.269-0.438-0.647-0.794-1.135-1.072
		c-0.488-0.278-1.034-0.417-1.639-0.417c-0.27,0-0.538,0.029-0.808,0.088c-0.269,0.059-0.509,0.151-0.718,0.277
		c-0.21,0.126-0.379,0.286-0.505,0.479c-0.126,0.193-0.189,0.433-0.189,0.718c0,0.505,0.227,0.879,0.681,1.123
		c0.454,0.244,1.135,0.466,2.042,0.668c0.572,0.134,1.102,0.294,1.589,0.479c0.488,0.185,0.912,0.416,1.274,0.694
		c0.361,0.277,0.644,0.609,0.845,0.996c0.202,0.387,0.303,0.841,0.303,1.362c0,0.706-0.134,1.303-0.404,1.791
		c-0.269,0.487-0.626,0.886-1.072,1.198c-0.445,0.312-0.954,0.534-1.526,0.668c-0.572,0.135-1.16,0.202-1.766,0.202
		c-0.908,0-1.795-0.177-2.662-0.53c-0.865-0.353-1.584-0.891-2.156-1.614l1.69-1.438c0.32,0.471,0.761,0.866,1.324,1.185
		c0.563,0.32,1.182,0.479,1.854,0.479c0.302,0,0.593-0.029,0.87-0.088c0.277-0.059,0.53-0.156,0.757-0.29
		c0.227-0.135,0.408-0.311,0.542-0.53c0.134-0.219,0.201-0.496,0.201-0.833c0-0.555-0.265-0.967-0.794-1.236
		c-0.529-0.27-1.307-0.521-2.333-0.757c-0.403-0.101-0.811-0.222-1.223-0.366c-0.412-0.143-0.786-0.34-1.123-0.592
		c-0.336-0.252-0.61-0.568-0.82-0.946c-0.21-0.378-0.315-0.845-0.315-1.4c0-0.639,0.131-1.189,0.392-1.652
		c0.26-0.462,0.601-0.841,1.021-1.135c0.42-0.294,0.899-0.513,1.438-0.655c0.538-0.143,1.093-0.214,1.665-0.214
		c0.857,0,1.686,0.167,2.485,0.504c0.798,0.336,1.417,0.823,1.854,1.463L56.772,17.08z M67.366,15.996h-3.179v6.23
		c0,0.723,0.135,1.24,0.404,1.551c0.27,0.311,0.698,0.467,1.287,0.467c0.219,0,0.454-0.025,0.707-0.076
		c0.252-0.05,0.479-0.125,0.681-0.227l0.076,1.942c-0.286,0.101-0.601,0.181-0.946,0.24c-0.344,0.059-0.702,0.088-1.072,0.088
		c-1.127,0-1.988-0.311-2.585-0.933c-0.597-0.623-0.896-1.555-0.896-2.8v-6.482h-2.295v-1.942h2.295v-3.431h2.345v3.431h3.179
		V15.996z M78.565,18.972c-0.017-0.471-0.097-0.912-0.239-1.324c-0.143-0.412-0.354-0.769-0.631-1.072s-0.622-0.542-1.035-0.719
		c-0.412-0.176-0.896-0.265-1.45-0.265c-0.505,0-0.98,0.088-1.426,0.265c-0.445,0.177-0.832,0.417-1.16,0.719
		c-0.328,0.303-0.597,0.66-0.807,1.072c-0.21,0.412-0.333,0.854-0.366,1.324H78.565z M80.963,19.93v0.404
		c0,0.135-0.008,0.269-0.024,0.404h-9.487c0.017,0.504,0.131,0.979,0.341,1.424c0.21,0.446,0.492,0.833,0.845,1.161
		c0.353,0.327,0.761,0.584,1.223,0.769c0.462,0.186,0.955,0.277,1.476,0.277c0.808,0,1.506-0.176,2.093-0.529
		c0.589-0.353,1.052-0.782,1.388-1.286l1.666,1.336c-0.639,0.841-1.392,1.459-2.258,1.854c-0.867,0.395-1.83,0.593-2.889,0.593
		c-0.908,0-1.749-0.152-2.522-0.455c-0.774-0.302-1.438-0.728-1.993-1.273c-0.555-0.546-0.992-1.207-1.312-1.98
		c-0.319-0.773-0.479-1.631-0.479-2.573c0-0.925,0.155-1.778,0.466-2.56c0.311-0.782,0.744-1.45,1.299-2.005
		c0.555-0.555,1.21-0.988,1.967-1.299c0.757-0.311,1.573-0.466,2.447-0.466c0.875,0,1.669,0.143,2.384,0.429
		c0.715,0.286,1.319,0.697,1.815,1.236c0.497,0.538,0.88,1.19,1.148,1.955C80.828,18.11,80.963,18.972,80.963,19.93z M84.267,16.625
		c0-0.319-0.008-0.731-0.024-1.235c-0.018-0.505-0.043-0.95-0.075-1.337h2.245c0.032,0.303,0.058,0.652,0.075,1.046
		c0.017,0.396,0.024,0.719,0.024,0.972h0.075c0.337-0.707,0.829-1.274,1.477-1.703s1.375-0.643,2.182-0.643
		c0.37,0,0.68,0.034,0.934,0.1l-0.102,2.195c-0.336-0.084-0.698-0.127-1.084-0.127c-0.571,0-1.067,0.105-1.487,0.315
		c-0.421,0.21-0.771,0.493-1.049,0.845c-0.276,0.353-0.481,0.761-0.617,1.224c-0.135,0.462-0.202,0.946-0.202,1.451v6.28h-2.371
		V16.625z M102.932,24.117c-0.454,0.723-1.07,1.274-1.854,1.652c-0.781,0.378-1.603,0.568-2.459,0.568
		c-0.925,0-1.757-0.165-2.497-0.492s-1.37-0.778-1.893-1.349c-0.521-0.572-0.925-1.244-1.21-2.018
		c-0.286-0.773-0.429-1.598-0.429-2.472s0.143-1.694,0.429-2.459c0.285-0.765,0.693-1.434,1.224-2.006
		c0.529-0.571,1.164-1.017,1.905-1.336c0.738-0.32,1.555-0.479,2.446-0.479c0.975,0,1.824,0.206,2.547,0.618
		s1.295,0.912,1.715,1.501h0.05V6.94h2.372v19.069h-2.297v-1.892H102.932z M95.062,20.006c0,0.555,0.085,1.093,0.253,1.615
		c0.167,0.521,0.42,0.983,0.757,1.387c0.335,0.403,0.747,0.727,1.234,0.971c0.488,0.244,1.061,0.365,1.716,0.365
		c0.606,0,1.156-0.118,1.652-0.353c0.496-0.236,0.921-0.551,1.273-0.946c0.354-0.396,0.627-0.854,0.82-1.375s0.29-1.068,0.29-1.639
		c0-0.572-0.097-1.119-0.29-1.64c-0.193-0.521-0.467-0.984-0.82-1.387c-0.353-0.404-0.777-0.723-1.273-0.958
		s-1.046-0.353-1.652-0.353c-0.655,0-1.228,0.118-1.716,0.353c-0.487,0.235-0.899,0.555-1.234,0.958
		c-0.337,0.403-0.59,0.866-0.757,1.387C95.147,18.913,95.062,19.451,95.062,20.006z M116.855,18.266c0-0.892-0.27-1.551-0.807-1.98
		c-0.539-0.429-1.253-0.644-2.145-0.644c-0.672,0-1.308,0.131-1.904,0.391c-0.597,0.261-1.098,0.592-1.501,0.996l-1.261-1.513
		c0.589-0.555,1.308-0.992,2.157-1.312c0.849-0.32,1.761-0.479,2.736-0.479c0.857,0,1.602,0.122,2.232,0.366
		c0.631,0.244,1.147,0.576,1.551,0.996c0.403,0.421,0.706,0.917,0.907,1.489c0.202,0.571,0.304,1.186,0.304,1.841v5.221
		c0,0.404,0.012,0.829,0.038,1.273c0.024,0.446,0.071,0.812,0.138,1.098h-2.144c-0.134-0.572-0.201-1.144-0.201-1.715h-0.075
		c-0.438,0.639-0.988,1.135-1.653,1.488c-0.664,0.353-1.45,0.529-2.358,0.529c-0.47,0-0.962-0.062-1.475-0.189
		c-0.513-0.126-0.981-0.332-1.401-0.618s-0.769-0.665-1.046-1.136c-0.277-0.47-0.417-1.051-0.417-1.74
		c0-0.908,0.245-1.626,0.732-2.156c0.488-0.529,1.126-0.933,1.917-1.21c0.79-0.278,1.681-0.458,2.674-0.542
		c0.991-0.084,1.992-0.126,3.001-0.126V18.266z M116.275,20.309c-0.588,0-1.197,0.025-1.828,0.076s-1.203,0.152-1.716,0.303
		c-0.513,0.151-0.938,0.378-1.274,0.681c-0.335,0.302-0.504,0.706-0.504,1.21c0,0.353,0.072,0.647,0.215,0.883
		s0.332,0.429,0.567,0.581c0.235,0.151,0.496,0.256,0.781,0.315c0.287,0.059,0.581,0.088,0.884,0.088
		c1.109,0,1.963-0.332,2.561-0.996c0.597-0.665,0.895-1.501,0.895-2.51v-0.631H116.275z M125.406,16.021
		c0.304-0.64,0.786-1.182,1.45-1.627c0.665-0.445,1.451-0.668,2.359-0.668c0.806,0,1.533,0.185,2.181,0.555
		c0.648,0.37,1.156,0.983,1.526,1.841c0.403-0.774,0.968-1.366,1.69-1.778s1.513-0.618,2.371-0.618c0.773,0,1.438,0.13,1.992,0.391
		c0.556,0.261,1.018,0.61,1.388,1.047s0.644,0.95,0.819,1.539c0.177,0.588,0.265,1.219,0.265,1.892v7.416h-2.371v-6.634
		c0-0.488-0.041-0.95-0.125-1.387c-0.084-0.438-0.228-0.824-0.43-1.161c-0.2-0.336-0.471-0.605-0.807-0.807
		c-0.337-0.202-0.766-0.303-1.286-0.303c-0.538,0-1.002,0.114-1.388,0.341c-0.388,0.227-0.703,0.521-0.945,0.883
		c-0.245,0.361-0.421,0.769-0.53,1.223s-0.164,0.917-0.164,1.387v6.458h-2.371v-7.113c0-0.471-0.042-0.899-0.126-1.287
		c-0.084-0.386-0.227-0.718-0.429-0.996c-0.201-0.277-0.463-0.496-0.782-0.656s-0.715-0.24-1.186-0.24
		c-0.875,0-1.602,0.357-2.182,1.072c-0.58,0.714-0.87,1.669-0.87,2.863v6.356h-2.372v-9.384c0-0.319-0.008-0.731-0.024-1.235
		c-0.018-0.505-0.043-0.95-0.075-1.337h2.245c0.033,0.303,0.06,0.643,0.075,1.021c0.017,0.378,0.024,0.693,0.024,0.946H125.406z
		 M23.022,44.195c-0.017-0.47-0.096-0.912-0.239-1.325c-0.143-0.412-0.354-0.768-0.63-1.071c-0.278-0.303-0.623-0.543-1.034-0.719
		c-0.413-0.177-0.896-0.265-1.451-0.265c-0.504,0-0.979,0.088-1.425,0.265c-0.445,0.176-0.832,0.416-1.16,0.719
		c-0.328,0.303-0.597,0.659-0.807,1.071c-0.21,0.413-0.332,0.855-0.366,1.325H23.022z M25.419,45.153v0.404
		c0,0.135-0.008,0.27-0.025,0.403H15.91c0.017,0.505,0.13,0.979,0.34,1.425c0.21,0.445,0.492,0.833,0.845,1.16
		c0.353,0.328,0.761,0.585,1.224,0.77c0.462,0.185,0.954,0.277,1.475,0.277c0.808,0,1.505-0.176,2.094-0.529
		c0.588-0.353,1.051-0.781,1.387-1.285l1.665,1.336c-0.64,0.841-1.392,1.459-2.258,1.854c-0.866,0.395-1.829,0.592-2.888,0.592
		c-0.908,0-1.749-0.151-2.522-0.455c-0.773-0.301-1.438-0.728-1.992-1.273c-0.555-0.545-0.992-1.206-1.312-1.979
		c-0.319-0.774-0.479-1.632-0.479-2.573c0-0.925,0.156-1.778,0.467-2.561s0.744-1.451,1.299-2.005
		c0.555-0.555,1.21-0.988,1.967-1.299c0.756-0.311,1.572-0.467,2.447-0.467s1.669,0.143,2.383,0.429
		c0.715,0.286,1.32,0.698,1.817,1.236c0.496,0.538,0.878,1.19,1.147,1.956C25.284,43.334,25.419,44.195,25.419,45.153z
		 M37.097,42.304c-0.252-0.387-0.63-0.71-1.135-0.971c-0.504-0.26-1.042-0.391-1.614-0.391c-0.623,0-1.173,0.118-1.652,0.354
		c-0.479,0.235-0.888,0.55-1.224,0.946c-0.336,0.395-0.593,0.853-0.769,1.374c-0.177,0.522-0.265,1.069-0.265,1.642
		c0,0.571,0.088,1.117,0.265,1.639c0.176,0.521,0.433,0.979,0.769,1.374s0.748,0.711,1.236,0.946s1.042,0.353,1.665,0.353
		c0.605,0,1.156-0.117,1.652-0.353s0.904-0.556,1.223-0.958l1.589,1.438c-0.504,0.589-1.135,1.047-1.891,1.374
		c-0.757,0.328-1.615,0.492-2.573,0.492c-0.925,0-1.779-0.151-2.561-0.455c-0.782-0.301-1.458-0.728-2.031-1.273
		c-0.571-0.545-1.021-1.206-1.349-1.979c-0.328-0.774-0.492-1.64-0.492-2.598c0-0.943,0.16-1.801,0.479-2.573
		c0.32-0.774,0.765-1.438,1.337-1.994c0.571-0.555,1.249-0.983,2.031-1.286c0.781-0.303,1.627-0.454,2.534-0.454
		c0.841,0,1.678,0.168,2.51,0.505c0.833,0.336,1.492,0.824,1.98,1.462L37.097,42.304z M53.291,45.229
		c0,0.925-0.164,1.773-0.492,2.549c-0.327,0.772-0.781,1.441-1.362,2.004c-0.581,0.563-1.266,1-2.056,1.312
		c-0.79,0.311-1.639,0.467-2.547,0.467s-1.758-0.156-2.548-0.467c-0.791-0.312-1.472-0.748-2.043-1.312
		c-0.572-0.562-1.021-1.231-1.35-2.004c-0.328-0.775-0.492-1.624-0.492-2.549s0.164-1.77,0.492-2.535
		c0.328-0.765,0.778-1.425,1.35-1.98c0.571-0.555,1.252-0.988,2.043-1.299c0.79-0.311,1.64-0.467,2.548-0.467
		s1.757,0.156,2.547,0.467c0.791,0.311,1.476,0.744,2.056,1.299s1.035,1.215,1.362,1.98C53.127,43.46,53.291,44.305,53.291,45.229z
		 M50.819,45.229c0-0.572-0.088-1.118-0.265-1.64s-0.433-0.979-0.77-1.375c-0.336-0.395-0.752-0.71-1.248-0.946
		c-0.496-0.235-1.064-0.353-1.703-0.353c-0.639,0-1.207,0.118-1.703,0.353c-0.496,0.236-0.912,0.551-1.249,0.946
		c-0.336,0.396-0.593,0.854-0.77,1.375c-0.176,0.521-0.265,1.067-0.265,1.64s0.089,1.118,0.265,1.641
		c0.177,0.52,0.434,0.983,0.77,1.387c0.336,0.402,0.752,0.723,1.249,0.958s1.064,0.353,1.703,0.353c0.639,0,1.207-0.117,1.703-0.353
		c0.496-0.235,0.912-0.556,1.248-0.958c0.336-0.403,0.593-0.867,0.77-1.387C50.731,46.348,50.819,45.802,50.819,45.229z
		 M58.714,39.277c0.034,0.303,0.059,0.643,0.076,1.022c0.017,0.377,0.025,0.693,0.025,0.945h0.076
		c0.151-0.319,0.357-0.618,0.618-0.895c0.26-0.278,0.559-0.521,0.895-0.732c0.337-0.21,0.707-0.374,1.11-0.492
		c0.403-0.118,0.824-0.177,1.261-0.177c0.773,0,1.437,0.13,1.993,0.391c0.555,0.261,1.017,0.609,1.387,1.047s0.643,0.95,0.819,1.539
		c0.177,0.588,0.265,1.219,0.265,1.891v7.417h-2.371v-6.636c0-0.486-0.038-0.949-0.113-1.386c-0.076-0.438-0.214-0.824-0.417-1.16
		c-0.202-0.337-0.479-0.606-0.832-0.808c-0.354-0.202-0.808-0.303-1.362-0.303c-0.942,0-1.711,0.357-2.308,1.072
		c-0.597,0.714-0.896,1.669-0.896,2.862v6.357H56.57V41.85c0-0.319-0.009-0.732-0.025-1.236c-0.017-0.504-0.042-0.95-0.076-1.337
		H58.714z M83.359,45.229c0,0.925-0.165,1.773-0.491,2.549c-0.329,0.772-0.783,1.441-1.363,2.004c-0.58,0.563-1.265,1-2.056,1.312
		c-0.791,0.311-1.641,0.467-2.548,0.467c-0.909,0-1.758-0.156-2.548-0.467c-0.791-0.312-1.472-0.748-2.043-1.312
		c-0.572-0.562-1.021-1.231-1.35-2.004c-0.328-0.775-0.492-1.624-0.492-2.549s0.164-1.77,0.492-2.535
		c0.328-0.765,0.777-1.425,1.35-1.98c0.572-0.555,1.253-0.988,2.043-1.299c0.79-0.311,1.639-0.467,2.548-0.467
		c0.908,0,1.757,0.156,2.548,0.467s1.476,0.744,2.056,1.299s1.034,1.215,1.363,1.98C83.194,43.46,83.359,44.305,83.359,45.229z
		 M80.888,45.229c0-0.572-0.089-1.118-0.265-1.64c-0.178-0.521-0.434-0.979-0.771-1.375c-0.337-0.395-0.752-0.71-1.249-0.946
		c-0.495-0.235-1.064-0.353-1.703-0.353c-0.64,0-1.208,0.118-1.703,0.353c-0.496,0.236-0.913,0.551-1.249,0.946
		c-0.336,0.396-0.593,0.854-0.77,1.375s-0.265,1.067-0.265,1.64s0.088,1.118,0.265,1.641c0.177,0.52,0.433,0.983,0.77,1.387
		c0.336,0.402,0.752,0.723,1.249,0.958c0.496,0.235,1.063,0.353,1.703,0.353c0.638,0,1.208-0.117,1.703-0.353
		c0.497-0.235,0.912-0.556,1.249-0.958c0.337-0.403,0.593-0.867,0.771-1.387C80.799,46.348,80.888,45.802,80.888,45.229z
		 M88.959,41.244c0.303-0.639,0.786-1.181,1.449-1.627c0.665-0.445,1.451-0.668,2.359-0.668c0.808,0,1.535,0.185,2.182,0.555
		c0.646,0.371,1.156,0.984,1.525,1.842c0.403-0.773,0.967-1.366,1.69-1.778s1.514-0.618,2.371-0.618c0.773,0,1.438,0.13,1.992,0.391
		c0.556,0.261,1.018,0.609,1.388,1.047s0.643,0.95,0.82,1.539c0.176,0.588,0.264,1.219,0.264,1.891v7.417h-2.37v-6.636
		c0-0.486-0.041-0.949-0.127-1.386c-0.084-0.438-0.227-0.824-0.429-1.16c-0.201-0.337-0.47-0.606-0.807-0.808
		s-0.766-0.303-1.287-0.303c-0.537,0-1.001,0.114-1.386,0.341c-0.388,0.227-0.703,0.521-0.946,0.882
		c-0.244,0.362-0.421,0.769-0.53,1.223c-0.109,0.455-0.165,0.917-0.165,1.389v6.457h-2.369v-7.114c0-0.471-0.042-0.899-0.127-1.286
		c-0.084-0.387-0.228-0.718-0.429-0.996c-0.202-0.278-0.462-0.497-0.782-0.656c-0.319-0.16-0.714-0.24-1.185-0.24
		c-0.875,0-1.603,0.357-2.182,1.072c-0.58,0.714-0.87,1.669-0.87,2.862v6.357h-2.372V41.85c0-0.319-0.008-0.732-0.024-1.236
		c-0.017-0.504-0.042-0.95-0.076-1.337h2.244c0.034,0.303,0.06,0.643,0.077,1.022c0.017,0.377,0.025,0.693,0.025,0.945H88.959z
		 M111.407,51.233h-2.371V39.277h2.371V51.233z M111.811,34.963c0,0.437-0.155,0.799-0.466,1.085s-0.685,0.429-1.123,0.429
		c-0.438,0-0.808-0.147-1.109-0.441c-0.303-0.294-0.454-0.652-0.454-1.072c0-0.437,0.151-0.803,0.454-1.097
		c0.302-0.294,0.672-0.441,1.109-0.441c0.438,0,0.812,0.147,1.123,0.441S111.811,34.526,111.811,34.963z M123.918,42.304
		c-0.251-0.387-0.63-0.71-1.134-0.971c-0.505-0.26-1.043-0.391-1.614-0.391c-0.623,0-1.174,0.118-1.652,0.354
		c-0.479,0.235-0.888,0.55-1.224,0.946c-0.337,0.395-0.593,0.853-0.771,1.374c-0.176,0.522-0.264,1.069-0.264,1.642
		c0,0.571,0.088,1.117,0.264,1.639c0.178,0.521,0.434,0.979,0.771,1.374c0.336,0.396,0.747,0.711,1.235,0.946
		c0.487,0.235,1.042,0.353,1.665,0.353c0.605,0,1.155-0.117,1.651-0.353s0.905-0.556,1.224-0.958l1.59,1.438
		c-0.505,0.589-1.135,1.047-1.892,1.374c-0.758,0.328-1.614,0.492-2.573,0.492c-0.925,0-1.778-0.151-2.561-0.455
		c-0.782-0.301-1.458-0.728-2.03-1.273c-0.572-0.545-1.021-1.206-1.35-1.979c-0.328-0.774-0.491-1.64-0.491-2.598
		c0-0.943,0.16-1.801,0.479-2.573c0.319-0.774,0.765-1.438,1.336-1.994c0.573-0.555,1.25-0.983,2.032-1.286s1.627-0.454,2.534-0.454
		c0.841,0,1.678,0.168,2.511,0.505c0.832,0.336,1.491,0.824,1.979,1.462L123.918,42.304z M27.84,70.126
		c0,0.873-0.134,1.715-0.404,2.522c-0.269,0.806-0.66,1.518-1.173,2.131c-0.513,0.612-1.139,1.105-1.879,1.475
		c-0.74,0.37-1.581,0.556-2.522,0.556c-0.841,0-1.635-0.172-2.384-0.518c-0.748-0.345-1.324-0.836-1.728-1.476H17.7v1.64h-3.809
		V57.388h4.137v7.844h0.051c0.353-0.419,0.849-0.808,1.488-1.16c0.639-0.354,1.42-0.529,2.346-0.529
		c0.908,0,1.728,0.176,2.459,0.529c0.732,0.353,1.354,0.833,1.867,1.438c0.513,0.604,0.908,1.307,1.186,2.105
		S27.84,69.25,27.84,70.126z M23.855,70.126c0-0.404-0.064-0.8-0.189-1.186c-0.126-0.388-0.315-0.728-0.567-1.021
		c-0.252-0.295-0.564-0.534-0.934-0.72c-0.37-0.186-0.798-0.277-1.286-0.277c-0.471,0-0.892,0.092-1.261,0.277
		c-0.37,0.186-0.686,0.429-0.946,0.731c-0.261,0.303-0.462,0.647-0.605,1.034s-0.214,0.781-0.214,1.186s0.071,0.799,0.214,1.186
		s0.345,0.73,0.605,1.035c0.26,0.302,0.576,0.546,0.946,0.73c0.37,0.185,0.79,0.277,1.261,0.277c0.488,0,0.916-0.093,1.286-0.277
		c0.37-0.185,0.681-0.429,0.934-0.73c0.252-0.305,0.441-0.652,0.567-1.048C23.792,70.928,23.855,70.529,23.855,70.126z
		 M43.781,70.126c0,1.024-0.185,1.954-0.554,2.786c-0.37,0.833-0.875,1.539-1.514,2.118c-0.639,0.581-1.379,1.03-2.22,1.351
		c-0.84,0.319-1.741,0.479-2.699,0.479c-0.942,0-1.837-0.16-2.687-0.479c-0.849-0.32-1.589-0.77-2.22-1.351
		c-0.631-0.579-1.131-1.285-1.5-2.118c-0.37-0.832-0.555-1.762-0.555-2.786c0-1.026,0.185-1.951,0.555-2.775
		c0.37-0.824,0.87-1.522,1.5-2.094c0.63-0.572,1.371-1.009,2.22-1.312c0.85-0.303,1.745-0.454,2.687-0.454
		c0.958,0,1.858,0.151,2.699,0.454c0.841,0.303,1.581,0.739,2.22,1.312c0.639,0.571,1.144,1.27,1.514,2.094
		C43.597,68.175,43.781,69.1,43.781,70.126z M39.796,70.126c0-0.404-0.067-0.8-0.202-1.186c-0.134-0.388-0.328-0.728-0.58-1.021
		c-0.252-0.295-0.563-0.534-0.933-0.72c-0.37-0.186-0.799-0.277-1.286-0.277c-0.488,0-0.917,0.092-1.287,0.277
		c-0.37,0.186-0.677,0.425-0.92,0.72c-0.244,0.294-0.429,0.634-0.555,1.021c-0.126,0.386-0.189,0.781-0.189,1.186
		c0,0.403,0.063,0.798,0.189,1.185c0.126,0.387,0.315,0.735,0.567,1.047c0.252,0.312,0.563,0.56,0.934,0.744
		s0.798,0.277,1.286,0.277s0.917-0.093,1.286-0.277c0.371-0.185,0.681-0.433,0.934-0.744s0.441-0.66,0.567-1.047
		C39.733,70.924,39.796,70.529,39.796,70.126z M53.821,70.983h-0.53c-0.454,0-0.913,0.021-1.375,0.062
		c-0.462,0.043-0.874,0.121-1.236,0.239c-0.361,0.118-0.66,0.291-0.896,0.518c-0.235,0.227-0.353,0.525-0.353,0.895
		c0,0.237,0.055,0.438,0.164,0.606c0.11,0.168,0.248,0.302,0.416,0.403c0.168,0.101,0.362,0.173,0.58,0.214
		c0.219,0.042,0.429,0.064,0.631,0.064c0.841,0,1.484-0.232,1.929-0.695c0.446-0.461,0.669-1.089,0.669-1.878V70.983z
		 M46.229,65.609c0.74-0.705,1.602-1.235,2.585-1.589c0.983-0.353,1.988-0.529,3.014-0.529c1.059,0,1.955,0.13,2.686,0.391
		c0.732,0.262,1.325,0.665,1.779,1.211c0.454,0.547,0.786,1.236,0.996,2.069c0.21,0.832,0.315,1.819,0.315,2.964v6.33h-3.784v-1.337
		h-0.076c-0.32,0.521-0.803,0.925-1.451,1.211c-0.647,0.285-1.349,0.428-2.106,0.428c-0.504,0-1.026-0.067-1.564-0.2
		c-0.538-0.135-1.03-0.354-1.476-0.656c-0.445-0.303-0.812-0.707-1.097-1.211c-0.286-0.505-0.429-1.126-0.429-1.866
		c0-0.908,0.248-1.64,0.744-2.194c0.496-0.555,1.136-0.983,1.917-1.286c0.782-0.304,1.652-0.505,2.611-0.606
		c0.958-0.101,1.892-0.15,2.8-0.15v-0.201c0-0.623-0.218-1.081-0.656-1.376c-0.437-0.294-0.975-0.441-1.614-0.441
		c-0.588,0-1.156,0.127-1.702,0.378c-0.547,0.253-1.013,0.556-1.4,0.908L46.229,65.609z M68.829,67.275
		c-0.185-0.052-0.366-0.084-0.542-0.102c-0.177-0.018-0.35-0.025-0.517-0.025c-0.555,0-1.022,0.101-1.4,0.303
		c-0.379,0.201-0.682,0.446-0.909,0.731c-0.227,0.286-0.39,0.598-0.492,0.933c-0.101,0.337-0.151,0.631-0.151,0.884v6.457h-4.137
		V63.896h3.986v1.815h0.05c0.32-0.639,0.773-1.16,1.362-1.564c0.589-0.403,1.27-0.604,2.043-0.604c0.168,0,0.332,0.009,0.492,0.024
		c0.16,0.017,0.29,0.043,0.391,0.076L68.829,67.275z M80.182,76.456v-1.64h-0.051c-0.405,0.64-0.979,1.131-1.729,1.476
		c-0.749,0.346-1.543,0.518-2.385,0.518c-0.941,0-1.782-0.186-2.522-0.556c-0.74-0.369-1.366-0.862-1.879-1.475
		c-0.513-0.613-0.904-1.325-1.173-2.131c-0.269-0.808-0.403-1.649-0.403-2.522c0-0.876,0.138-1.712,0.416-2.511
		c0.277-0.799,0.673-1.501,1.186-2.105c0.513-0.605,1.135-1.086,1.866-1.438c0.731-0.354,1.552-0.529,2.459-0.529
		c0.925,0,1.707,0.176,2.347,0.529c0.639,0.353,1.136,0.741,1.488,1.16h0.051v-7.844h4.137v19.068H80.182z M80.03,70.15
		c0-0.404-0.073-0.799-0.216-1.186s-0.345-0.731-0.605-1.034s-0.575-0.546-0.946-0.731c-0.37-0.186-0.79-0.277-1.262-0.277
		c-0.488,0-0.916,0.092-1.287,0.277c-0.37,0.186-0.681,0.425-0.933,0.72c-0.252,0.294-0.441,0.634-0.567,1.021
		c-0.126,0.386-0.189,0.781-0.189,1.186c0,0.403,0.063,0.802,0.189,1.197c0.126,0.396,0.315,0.743,0.567,1.048
		c0.252,0.302,0.563,0.546,0.933,0.73c0.371,0.185,0.799,0.277,1.287,0.277c0.472,0,0.892-0.093,1.262-0.277
		c0.371-0.185,0.686-0.429,0.946-0.73c0.261-0.305,0.463-0.648,0.605-1.035S80.03,70.555,80.03,70.15z"/>
</g>
</svg>
