<?xml version="1.0" encoding="utf-8"?>
<!-- Generator: Adobe Illustrator 22.1.0, SVG Export Plug-In . SVG Version: 6.00 Build 0)  -->
<svg version="1.1" id="Layer_1" xmlns="http://www.w3.org/2000/svg" xmlns:xlink="http://www.w3.org/1999/xlink" x="0px" y="0px"
	 width="80px" height="80px" viewBox="0 0 80 80" style="enable-background:new 0 0 80 80;" xml:space="preserve">
<style type="text/css">
	.st0{fill:#FFF100;}
	.st1{fill:#231F20;}
</style>
<g>
	<path class="st0" d="M76.2,42.1h-0.1h-0.1h-3.9h-3.9h0h0h-4h-4c-0.2,0-0.3-0.1-0.5-0.2c-0.1-0.1-0.2-0.3-0.2-0.5V40v-1.4
		c0-0.2,0.1-0.3,0.2-0.5c0.1-0.1,0.3-0.2,0.5-0.2h4h4h0h0h3.9h3.9h0.1h0.1h1.9H80V19.8V0H40H0v40v40h40h40V61.9V42.1h-1.9H76.2z"/>
	<path class="st1" d="M13.1,24.1v-5.9c0-0.2-0.1-0.3-0.3-0.3h-2.5c-0.4,0-0.6-0.3-0.6-0.6v-2.6c0-0.4,0.3-0.6,0.6-0.6h2.5
		c0.2,0,0.3-0.1,0.3-0.3V8.9c0-0.4,0.3-0.6,0.6-0.6h2.9c0.4,0,0.6,0.3,0.6,0.6v4.9c0,0.2,0.1,0.3,0.3,0.3H21c0.4,0,0.6,0.3,0.6,0.6
		v2.6c0,0.4-0.3,0.6-0.6,0.6h-3.5c-0.2,0-0.3,0.1-0.3,0.3v5.8c0,1.2,0.7,1.9,1.9,1.9h2.2c0.4,0,0.6,0.3,0.6,0.6v2.7
		c0,0.4-0.3,0.6-0.6,0.6h-2.6C14.8,30,13.1,28.2,13.1,24.1"/>
	<path class="st1" d="M33.3,19.8c0-1.6-1.2-2.7-2.7-2.7c-1.7,0-2.8,1.1-2.8,2.7c0,0.2,0.1,0.3,0.3,0.3h4.9
		C33.1,20.1,33.3,20,33.3,19.8 M25.2,27.8c-1-1.4-1.4-3-1.4-5.8c0-2.8,0.4-4.4,1.4-5.8c1.1-1.6,3.1-2.5,5.3-2.5
		c4.2,0,6.5,2.7,6.5,7.6v1.4c0,0.4-0.3,0.6-0.6,0.6h-8.3c-0.2,0-0.3,0.1-0.3,0.3c0,2.1,0.8,3.1,2.7,3.1c1.3,0,2.1-0.5,2.5-1.5
		c0.1-0.4,0.4-0.5,0.7-0.5h2.7c0.4,0,0.6,0.3,0.5,0.7c-0.8,3.2-3.2,5-6.4,5C28.3,30.3,26.3,29.4,25.2,27.8"/>
	<path class="st1" d="M41.1,27.8c-1-1.4-1.4-3-1.4-5.8c0-2.8,0.4-4.4,1.4-5.8c1.1-1.6,3.1-2.5,5.3-2.5c1.9,0,3.5,0.5,4.6,1.4
		c1.2,1.1,1.9,2.8,1.9,4.8c0,0.4-0.2,0.6-0.5,0.6h-2.9c-0.4,0-0.6-0.2-0.6-0.5c-0.1-0.9-0.3-1.4-0.7-1.7c-0.4-0.4-1-0.5-1.8-0.5
		c-1,0-1.6,0.2-2,0.8c-0.4,0.5-0.5,1.4-0.5,3.4s0.1,2.9,0.5,3.4c0.4,0.5,1,0.8,2,0.8c0.9,0,1.4-0.1,1.8-0.4c0.4-0.3,0.5-0.7,0.7-1.9
		c0-0.3,0.3-0.4,0.6-0.4h2.9c0.3,0,0.5,0.3,0.5,0.6c0,1.8-0.5,3.3-1.5,4.4c-1.1,1.2-2.9,1.9-5,1.9C44.2,30.3,42.3,29.4,41.1,27.8"/>
	<path class="st1" d="M56,29.3V7.9c0-0.4,0.3-0.6,0.6-0.6h2.9c0.4,0,0.6,0.3,0.6,0.6v5.7c0,0.4,0.2,0.7,0.6,0.7
		c0.3,0,1.1-0.7,2.7-0.7c3.4,0,5.6,2.2,5.6,5.9v9.8c0,0.4-0.3,0.6-0.6,0.6h-2.9c-0.4,0-0.6-0.3-0.6-0.6v-9.4c0-1.4-0.9-2.2-2.4-2.2
		c-1.5,0-2.4,0.8-2.4,2.1v9.6c0,0.4-0.3,0.6-0.6,0.6h-2.9C56.3,30,56,29.7,56,29.3"/>
	<path class="st1" d="M12,48.2c-1-1.4-1.4-3-1.4-5.8c0-2.8,0.4-4.4,1.4-5.8c1.1-1.6,3.1-2.5,5.3-2.5c1.9,0,3.5,0.5,4.6,1.4
		c1.2,1.1,1.9,2.8,1.9,4.8c0,0.4-0.2,0.6-0.5,0.6h-2.9c-0.4,0-0.6-0.2-0.6-0.5c-0.1-0.9-0.3-1.4-0.7-1.7c-0.4-0.4-1-0.5-1.8-0.5
		c-1,0-1.6,0.2-2,0.8c-0.4,0.5-0.5,1.4-0.5,3.4s0.1,2.9,0.5,3.4c0.4,0.5,1,0.8,2,0.8c0.9,0,1.4-0.1,1.8-0.4c0.4-0.3,0.5-0.7,0.7-1.9
		c0-0.3,0.3-0.4,0.6-0.4h2.9c0.3,0,0.5,0.3,0.5,0.6c0,1.8-0.5,3.4-1.5,4.4c-1.1,1.2-2.9,1.9-5,1.9C15.1,50.7,13.2,49.7,12,48.2"/>
	<path class="st1" d="M35.1,45.8c0.4-0.5,0.5-1.4,0.5-3.4s-0.1-2.9-0.5-3.4c-0.4-0.5-1-0.8-2-0.8c-1,0-1.6,0.2-2,0.8
		c-0.4,0.5-0.5,1.4-0.5,3.4s0.1,2.9,0.5,3.4c0.4,0.5,1,0.8,2,0.8C34.1,46.5,34.7,46.3,35.1,45.8 M27.7,48.2c-1-1.4-1.4-3-1.4-5.8
		c0-2.8,0.4-4.4,1.4-5.8c1.1-1.6,3.1-2.5,5.3-2.5c2.2,0,4.2,1,5.3,2.5c1,1.4,1.4,3,1.4,5.8c0,2.8-0.4,4.4-1.4,5.8
		c-1.1,1.6-3.1,2.5-5.3,2.5C30.8,50.7,28.9,49.7,27.7,48.2"/>
	<path class="st1" d="M43.1,49.7V35c0-0.4,0.3-0.6,0.6-0.6h1.6c0.3,0,0.4,0.1,0.6,0.2c0.3,0.4,0.4,0.8,0.9,0.8
		c0.8,0,1.3-1.4,3.8-1.4c3.4,0,5.6,2.2,5.6,5.9v9.8c0,0.4-0.3,0.6-0.6,0.6h-2.9c-0.4,0-0.6-0.3-0.6-0.6v-9.4c0-1.4-0.9-2.2-2.4-2.2
		c-1.5,0-2.4,0.8-2.4,2.1v9.6c0,0.4-0.3,0.6-0.6,0.6h-2.9C43.3,50.3,43.1,50.1,43.1,49.7"/>
	<path class="st1" d="M11.2,70.1V55.4c0-0.4,0.3-0.6,0.6-0.6h1.6c0.3,0,0.4,0.1,0.6,0.2c0.3,0.4,0.4,0.8,0.9,0.8
		c0.8,0,1.3-1.4,3.8-1.4c3.4,0,5.6,2.2,5.6,5.9v9.8c0,0.4-0.3,0.6-0.6,0.6h-2.9c-0.4,0-0.6-0.3-0.6-0.6v-9.4c0-1.4-0.9-2.2-2.4-2.2
		c-1.5,0-2.4,0.8-2.4,2.1v9.6c0,0.4-0.3,0.6-0.6,0.6h-2.9C11.5,70.7,11.2,70.4,11.2,70.1"/>
	<path class="st1" d="M36.8,60.5c0-1.6-1.2-2.7-2.7-2.7c-1.7,0-2.8,1.1-2.8,2.7c0,0.2,0.1,0.3,0.3,0.3h4.8
		C36.7,60.8,36.8,60.7,36.8,60.5 M28.8,68.5c-1-1.4-1.4-3-1.4-5.8c0-2.8,0.4-4.4,1.4-5.8c1.1-1.6,3.1-2.5,5.3-2.5
		c4.2,0,6.5,2.7,6.5,7.6v1.4c0,0.4-0.3,0.6-0.6,0.6h-8.3c-0.2,0-0.3,0.1-0.3,0.3c0,2.1,0.8,3.1,2.7,3.1c1.3,0,2.1-0.5,2.5-1.5
		c0.1-0.4,0.4-0.5,0.7-0.5H40c0.4,0,0.6,0.3,0.5,0.7c-0.8,3.2-3.2,5-6.4,5C31.9,71.1,29.9,70.1,28.8,68.5"/>
	<path class="st1" d="M44.7,68.5c-1-1.4-1.4-3-1.4-5.8c0-2.8,0.4-4.4,1.4-5.8c1.1-1.6,3.1-2.5,5.3-2.5c1.9,0,3.5,0.5,4.6,1.4
		c1.2,1.1,1.9,2.8,1.9,4.8c0,0.4-0.2,0.6-0.5,0.6h-2.9c-0.4,0-0.6-0.2-0.6-0.5c-0.1-0.9-0.3-1.4-0.7-1.7c-0.4-0.4-1-0.5-1.8-0.5
		c-1,0-1.6,0.2-2,0.8c-0.4,0.5-0.5,1.4-0.5,3.4s0.1,2.9,0.5,3.4c0.4,0.5,1,0.8,2,0.8c0.9,0,1.4-0.1,1.8-0.4c0.4-0.3,0.5-0.7,0.7-1.9
		c0-0.3,0.3-0.4,0.6-0.4H56c0.3,0,0.5,0.3,0.5,0.6c0,1.8-0.5,3.4-1.5,4.4c-1.1,1.2-2.9,1.9-5,1.9C47.8,71.1,45.8,70.1,44.7,68.5"/>
	<path class="st1" d="M61.4,64.9V59c0-0.2-0.1-0.3-0.3-0.3h-2.5c-0.4,0-0.6-0.3-0.6-0.6v-2.6c0-0.4,0.3-0.6,0.6-0.6h2.5
		c0.2,0,0.3-0.1,0.3-0.3v-4.9c0-0.4,0.3-0.6,0.6-0.6h2.9c0.4,0,0.6,0.3,0.6,0.6v4.9c0,0.2,0.1,0.3,0.3,0.3h3.5
		c0.4,0,0.6,0.3,0.6,0.6V58c0,0.4-0.3,0.6-0.6,0.6h-3.5c-0.2,0-0.3,0.1-0.3,0.3v5.8c0,1.2,0.7,1.9,1.9,1.9h2.2
		c0.4,0,0.6,0.3,0.6,0.6v2.7c0,0.4-0.3,0.6-0.6,0.6h-2.6C63.2,70.7,61.4,68.9,61.4,64.9"/>
</g>
</svg>
